<svg class="main-svg" xmlns="http://www.w3.org/2000/svg" xmlns:xlink="http://www.w3.org/1999/xlink" width="2200" height="406" style="" viewBox="0 0 1100 203"><rect x="0" y="0" width="1100" height="203" style="fill: rgb(255, 255, 255); fill-opacity: 1;"/><defs id="defs-bcf742"><g class="clips"><clipPath id="clipbcf742xyplot" class="plotclip"><rect width="979" height="42.375"/></clipPath><clipPath id="clipbcf742x2y2plot" class="plotclip"><rect width="979" height="42.375"/></clipPath><clipPath class="axesclip" id="clipbcf742x"><rect x="106" y="0" width="979" height="203"/></clipPath><clipPath class="axesclip" id="clipbcf742y"><rect x="0" y="50" width="1100" height="42.375"/></clipPath><clipPath class="axesclip" id="clipbcf742xy"><rect x="106" y="50" width="979" height="42.375"/></clipPath><clipPath class="axesclip" id="clipbcf742y2"><rect x="0" y="120.625" width="1100" height="42.375"/></clipPath><clipPath class="axesclip" id="clipbcf742xy2"><rect x="106" y="120.625" width="979" height="42.375"/></clipPath><clipPath class="axesclip" id="clipbcf742x2"><rect x="106" y="0" width="979" height="203"/></clipPath><clipPath class="axesclip" id="clipbcf742x2y"><rect x="106" y="50" width="979" height="42.375"/></clipPath><clipPath class="axesclip" id="clipbcf742x2y2"><rect x="106" y="120.625" width="979" height="42.375"/></clipPath></g><g class="gradients"/><g class="patterns"/></defs><g class="bglayer"/><g class="layer-below"><g class="imagelayer"/><g class="shapelayer"/></g><g class="cartesianlayer"><g class="subplot xy"><g class="layer-subplot"><g class="shapelayer"/><g class="imagelayer"/></g><g class="minor-gridlayer"><g class="x"/><g class="y"/></g><g class="gridlayer"><g class="x"><path class="xgrid crisp" transform="translate(272.39,0)" d="M0,50v42.375" style="stroke: rgb(0, 0, 0); stroke-opacity: 0.1; stroke-width: 1px;"/><path class="xgrid crisp" transform="translate(433.94,0)" d="M0,50v42.375" style="stroke: rgb(0, 0, 0); stroke-opacity: 0.1; stroke-width: 1px;"/><path class="xgrid crisp" transform="translate(595.49,0)" d="M0,50v42.375" style="stroke: rgb(0, 0, 0); stroke-opacity: 0.1; stroke-width: 1px;"/><path class="xgrid crisp" transform="translate(757.04,0)" d="M0,50v42.375" style="stroke: rgb(0, 0, 0); stroke-opacity: 0.1; stroke-width: 1px;"/><path class="xgrid crisp" transform="translate(918.58,0)" d="M0,50v42.375" style="stroke: rgb(0, 0, 0); stroke-opacity: 0.1; stroke-width: 1px;"/><path class="xgrid crisp" transform="translate(1080.13,0)" d="M0,50v42.375" style="stroke: rgb(0, 0, 0); stroke-opacity: 0.1; stroke-width: 1px;"/></g><g class="y"><path class="ygrid crisp" transform="translate(0,71.19)" d="M106,0h979" style="stroke: rgb(0, 0, 0); stroke-opacity: 0.1; stroke-width: 1px;"/></g></g><g class="zerolinelayer"><path class="xzl zl crisp" transform="translate(110.85,0)" d="M0,50v42.375" style="stroke: rgb(0, 0, 0); stroke-opacity: 0.1; stroke-width: 2px;"/></g><g class="layer-between"><g class="shapelayer"/><g class="imagelayer"/></g><path class="xlines-below"/><path class="ylines-below"/><g class="overlines-below"/><g class="xaxislayer-below"/><g class="yaxislayer-below"/><g class="overaxes-below"/><g class="overplot"><g class="xy" transform="translate(106,50)" clip-path="url(#clipbcf742xyplot)"><g class="violinlayer mlayer"><g class="trace violins" style="opacity: 0.5;"><path class="violin" d="M-323.17,20.55Q-279.42,20.21 -257.55,19.95C-235.68,19.69 -213.8,19.38 -191.93,18.98C-170.06,18.58 -148.18,18.11 -126.31,17.57C-104.44,17.03 -82.56,16.39 -60.69,15.73C-38.82,15.06 -16.94,14.31 4.93,13.58C26.8,12.85 48.67,12.05 70.54,11.33C92.41,10.61 114.29,9.88 136.16,9.27C158.03,8.66 179.91,8.09 201.78,7.65C223.65,7.22 245.53,6.87 267.4,6.66C289.27,6.45 311.15,6.36 333.02,6.36C354.89,6.36 376.77,6.49 398.64,6.67C420.51,6.85 442.39,7.13 464.26,7.43C486.13,7.73 508,8.1 529.87,8.45C551.74,8.8 573.62,9.18 595.49,9.53C617.36,9.88 639.24,10.23 661.11,10.55C682.98,10.87 704.86,11.17 726.73,11.47C748.6,11.77 770.48,12.05 792.35,12.35C814.22,12.65 836.1,12.93 857.97,13.25C879.84,13.57 901.72,13.9 923.59,14.26C945.46,14.62 967.34,15.01 989.21,15.4C1011.08,15.79 1032.95,16.21 1054.82,16.61C1076.69,17.01 1098.57,17.42 1120.44,17.8C1142.31,18.17 1164.19,18.54 1186.06,18.86C1207.93,19.18 1229.81,19.47 1251.68,19.72C1273.55,19.96 1295.43,20.16 1317.3,20.33Q1339.17,20.5 1382.92,20.74L1382.92,21.64Q1339.17,21.87 1317.3,22.04C1295.43,22.21 1273.55,22.42 1251.68,22.66C1229.81,22.91 1207.93,23.19 1186.06,23.51C1164.19,23.83 1142.31,24.19 1120.44,24.57C1098.57,24.95 1076.69,25.37 1054.82,25.77C1032.95,26.17 1011.08,26.59 989.21,26.98C967.34,27.37 945.46,27.75 923.59,28.11C901.72,28.47 879.84,28.8 857.97,29.12C836.1,29.44 814.22,29.73 792.35,30.03C770.48,30.33 748.6,30.6 726.73,30.9C704.86,31.2 682.98,31.51 661.11,31.83C639.24,32.16 617.36,32.5 595.49,32.85C573.62,33.2 551.74,33.58 529.87,33.93C508,34.28 486.13,34.65 464.26,34.95C442.39,35.25 420.51,35.53 398.64,35.71C376.77,35.89 354.89,36.02 333.02,36.02C311.15,36.02 289.27,35.93 267.4,35.71C245.53,35.49 223.65,35.15 201.78,34.72C179.91,34.28 158.03,33.71 136.16,33.1C114.29,32.49 92.41,31.76 70.54,31.04C48.67,30.32 26.8,29.53 4.93,28.8C-16.94,28.07 -38.82,27.32 -60.69,26.65C-82.56,25.99 -104.44,25.35 -126.31,24.81C-148.18,24.27 -170.06,23.8 -191.93,23.4C-213.8,23 -235.68,22.69 -257.55,22.43Q-279.42,22.17 -323.17,21.82Z" style="vector-effect: none; stroke-width: 2px; stroke: rgb(181, 181, 181); stroke-opacity: 1; fill: rgb(181, 181, 181); fill-opacity: 1;"/><path class="box" d="M408.71,24.9V17.48M226.97,24.9V17.48H691.42V24.9ZM226.97,21.19H85.62M691.42,21.19H974.13" style="vector-effect: non-scaling-stroke; stroke-width: 2px; stroke: rgb(181, 181, 181); stroke-opacity: 1; fill: rgb(181, 181, 181); fill-opacity: 1;"/><path class="mean" d="M462.56,24.9V17.48" style="fill: none; vector-effect: non-scaling-stroke; stroke-width: 2px; stroke-dasharray: 4px, 2px; stroke: rgb(181, 181, 181); stroke-opacity: 1;"/></g></g><g class="scatterlayer mlayer"><g class="trace scatter traceacd404" style="stroke-miterlimit: 2; opacity: 1;"><g class="fills"/><g class="errorbars"/><g class="lines"/><g class="points"><path class="point" transform="translate(85.62,21.19)" d="M2,0A2,2 0 1,1 0,-2A2,2 0 0,1 2,0Z" style="opacity: 1; stroke-width: 0px; fill: rgb(11, 121, 230); fill-opacity: 1;"/></g><g class="text"/></g><g class="trace scatter trace2c682f" style="stroke-miterlimit: 2; opacity: 1;"><g class="fills"/><g class="errorbars"/><g class="lines"/><g class="points"><path class="point" transform="translate(166.39,21.19)" d="M2,0A2,2 0 1,1 0,-2A2,2 0 0,1 2,0Z" style="opacity: 1; stroke-width: 0px; fill: rgb(11, 121, 230); fill-opacity: 1;"/></g><g class="text"/></g><g class="trace scatter tracefe8c02" style="stroke-miterlimit: 2; opacity: 1;"><g class="fills"/><g class="errorbars"/><g class="lines"/><g class="points"><path class="point" transform="translate(247.17,21.19)" d="M2,0A2,2 0 1,1 0,-2A2,2 0 0,1 2,0Z" style="opacity: 1; stroke-width: 0px; fill: rgb(11, 121, 230); fill-opacity: 1;"/></g><g class="text"/></g><g class="trace scatter trace1a039f" style="stroke-miterlimit: 2; opacity: 1;"><g class="fills"/><g class="errorbars"/><g class="lines"/><g class="points"><path class="point" transform="translate(327.94,21.19)" d="M2,0A2,2 0 1,1 0,-2A2,2 0 0,1 2,0Z" style="opacity: 1; stroke-width: 0px; fill: rgb(11, 121, 230); fill-opacity: 1;"/></g><g class="text"/></g><g class="trace scatter trace4ed7fd" style="stroke-miterlimit: 2; opacity: 1;"><g class="fills"/><g class="errorbars"/><g class="lines"/><g class="points"><path class="point" transform="translate(408.71,21.19)" d="M2,0A2,2 0 1,1 0,-2A2,2 0 0,1 2,0Z" style="opacity: 1; stroke-width: 0px; fill: rgb(11, 121, 230); fill-opacity: 1;"/></g><g class="text"/></g><g class="trace scatter tracecfbf04" style="stroke-miterlimit: 2; opacity: 1;"><g class="fills"/><g class="errorbars"/><g class="lines"/><g class="points"><path class="point" transform="translate(489.49,21.19)" d="M2,0A2,2 0 1,1 0,-2A2,2 0 0,1 2,0Z" style="opacity: 1; stroke-width: 0px; fill: rgb(11, 121, 230); fill-opacity: 1;"/></g><g class="text"/></g><g class="trace scatter trace270557" style="stroke-miterlimit: 2; opacity: 1;"><g class="fills"/><g class="errorbars"/><g class="lines"/><g class="points"><path class="point" transform="translate(651.04,21.19)" d="M2,0A2,2 0 1,1 0,-2A2,2 0 0,1 2,0Z" style="opacity: 1; stroke-width: 0px; fill: rgb(11, 121, 230); fill-opacity: 1;"/></g><g class="text"/></g><g class="trace scatter trace1d76b4" style="stroke-miterlimit: 2; opacity: 1;"><g class="fills"/><g class="errorbars"/><g class="lines"/><g class="points"><path class="point" transform="translate(812.58,21.19)" d="M2,0A2,2 0 1,1 0,-2A2,2 0 0,1 2,0Z" style="opacity: 1; stroke-width: 0px; fill: rgb(11, 121, 230); fill-opacity: 1;"/></g><g class="text"/></g><g class="trace scatter trace883fc3" style="stroke-miterlimit: 2; opacity: 1;"><g class="fills"/><g class="errorbars"/><g class="lines"/><g class="points"><path class="point" transform="translate(974.13,21.19)" d="M2,0A2,2 0 1,1 0,-2A2,2 0 0,1 2,0Z" style="opacity: 1; stroke-width: 0px; fill: rgb(11, 121, 230); fill-opacity: 1;"/></g><g class="text"/></g></g></g></g><path class="xlines-above crisp" d="M0,0" style="fill: none;"/><path class="ylines-above crisp" d="M0,0" style="fill: none;"/><g class="overlines-above"/><g class="xaxislayer-above"><g class="xtick"><text text-anchor="middle" x="0" y="102.375" transform="translate(110.85,0)" style="font-family: 'Lucida Grande', 'Open Sans', verdana, arial, sans-serif; font-size: 9px; fill: rgb(0, 0, 0); fill-opacity: 0.5; white-space: pre; opacity: 1;">0</text></g><g class="xtick"><text text-anchor="middle" x="0" y="102.375" style="font-family: 'Lucida Grande', 'Open Sans', verdana, arial, sans-serif; font-size: 9px; fill: rgb(0, 0, 0); fill-opacity: 0.5; white-space: pre; opacity: 1;" transform="translate(272.39,0)">2</text></g><g class="xtick"><text text-anchor="middle" x="0" y="102.375" style="font-family: 'Lucida Grande', 'Open Sans', verdana, arial, sans-serif; font-size: 9px; fill: rgb(0, 0, 0); fill-opacity: 0.5; white-space: pre; opacity: 1;" transform="translate(433.94,0)">4</text></g><g class="xtick"><text text-anchor="middle" x="0" y="102.375" style="font-family: 'Lucida Grande', 'Open Sans', verdana, arial, sans-serif; font-size: 9px; fill: rgb(0, 0, 0); fill-opacity: 0.5; white-space: pre; opacity: 1;" transform="translate(595.49,0)">6</text></g><g class="xtick"><text text-anchor="middle" x="0" y="102.375" style="font-family: 'Lucida Grande', 'Open Sans', verdana, arial, sans-serif; font-size: 9px; fill: rgb(0, 0, 0); fill-opacity: 0.5; white-space: pre; opacity: 1;" transform="translate(757.04,0)">8</text></g><g class="xtick"><text text-anchor="middle" x="0" y="102.375" style="font-family: 'Lucida Grande', 'Open Sans', verdana, arial, sans-serif; font-size: 9px; fill: rgb(0, 0, 0); fill-opacity: 0.5; white-space: pre; opacity: 1;" transform="translate(918.58,0)">10</text></g><g class="xtick"><text text-anchor="middle" x="0" y="102.375" style="font-family: 'Lucida Grande', 'Open Sans', verdana, arial, sans-serif; font-size: 9px; fill: rgb(0, 0, 0); fill-opacity: 0.5; white-space: pre; opacity: 1;" transform="translate(1080.13,0)">12</text></g></g><g class="yaxislayer-above"><g class="ytick"><text text-anchor="end" x="105" y="3.15" transform="translate(0,71.19)" style="font-family: 'Lucida Grande', 'Open Sans', verdana, arial, sans-serif; font-size: 9px; fill: rgb(0, 0, 0); fill-opacity: 0.5; white-space: pre; opacity: 1;">Cluster Size  </text></g></g><g class="overaxes-above"/></g><g class="subplot x2y2"><g class="layer-subplot"><g class="shapelayer"/><g class="imagelayer"/></g><g class="minor-gridlayer"><g class="x2"/><g class="y2"/></g><g class="gridlayer"><g class="x2"><path class="x2grid crisp" transform="translate(293.15,0)" d="M0,120.625v42.375" style="stroke: rgb(0, 0, 0); stroke-opacity: 0.1; stroke-width: 1px;"/><path class="x2grid crisp" transform="translate(475.46,0)" d="M0,120.625v42.375" style="stroke: rgb(0, 0, 0); stroke-opacity: 0.1; stroke-width: 1px;"/><path class="x2grid crisp" transform="translate(657.76,0)" d="M0,120.625v42.375" style="stroke: rgb(0, 0, 0); stroke-opacity: 0.1; stroke-width: 1px;"/><path class="x2grid crisp" transform="translate(840.07,0)" d="M0,120.625v42.375" style="stroke: rgb(0, 0, 0); stroke-opacity: 0.1; stroke-width: 1px;"/><path class="x2grid crisp" transform="translate(1022.37,0)" d="M0,120.625v42.375" style="stroke: rgb(0, 0, 0); stroke-opacity: 0.1; stroke-width: 1px;"/></g><g class="y2"><path class="y2grid crisp" transform="translate(0,141.815)" d="M106,0h979" style="stroke: rgb(0, 0, 0); stroke-opacity: 0.1; stroke-width: 1px;"/></g></g><g class="zerolinelayer"><path class="x2zl zl crisp" transform="translate(110.85,0)" d="M0,120.625v42.375" style="stroke: rgb(0, 0, 0); stroke-opacity: 0.1; stroke-width: 2px;"/></g><g class="layer-between"><g class="shapelayer"/><g class="imagelayer"/></g><path class="xlines-below"/><path class="ylines-below"/><g class="overlines-below"/><g class="xaxislayer-below"/><g class="yaxislayer-below"/><g class="overaxes-below"/><g class="overplot"><g class="x2y2" transform="translate(106,120.625)" clip-path="url(#clipbcf742x2y2plot)"><g class="violinlayer mlayer"><g class="trace violins" style="opacity: 0.5;"><path class="violin" d="M-14.5,19.36Q-12.32,18.4 -11.27,17.78C-10.17,17.12 -9.1,16.32 -8.04,15.49C-6.94,14.62 -5.88,13.61 -4.81,12.66C-3.73,11.7 -2.68,10.63 -1.58,9.74C-0.53,8.89 0.53,8 1.65,7.43C2.69,6.9 3.79,6.45 4.88,6.36C5.95,6.27 7.07,6.49 8.11,6.86C9.23,7.26 10.29,8.02 11.34,8.77C12.45,9.57 13.51,10.6 14.58,11.54C15.66,12.5 16.72,13.55 17.81,14.47C18.87,15.36 19.94,16.25 21.04,16.99C22.09,17.69 23.17,18.32 24.27,18.83C25.33,19.32 26.41,19.7 27.5,20C28.57,20.3 29.65,20.49 30.73,20.65C31.8,20.81 32.88,20.89 33.96,20.97C35.04,21.05 36.11,21.08 37.19,21.11C38.27,21.14 39.34,21.15 40.42,21.16C41.5,21.17 42.57,21.17 43.65,21.18C44.73,21.18 45.8,21.19 46.88,21.19C47.96,21.19 49.03,21.19 50.11,21.19C51.19,21.19 52.27,21.19 53.35,21.19C54.43,21.19 55.5,21.19 56.58,21.19C57.66,21.19 58.73,21.19 59.81,21.19C60.89,21.19 61.96,21.19 63.04,21.19C64.12,21.19 65.19,21.19 66.27,21.19C67.35,21.19 68.42,21.19 69.5,21.19C70.58,21.19 71.65,21.19 72.73,21.19C73.81,21.19 74.88,21.19 75.96,21.19C77.04,21.19 78.11,21.19 79.19,21.19C80.27,21.19 81.34,21.19 82.42,21.19C83.5,21.19 84.57,21.19 85.65,21.19C86.73,21.19 87.8,21.19 88.88,21.19C89.96,21.19 91.04,21.19 92.12,21.19C93.2,21.19 94.27,21.19 95.35,21.19C96.43,21.19 97.5,21.19 98.58,21.19C99.66,21.19 100.73,21.19 101.81,21.19C102.89,21.19 103.96,21.19 105.04,21.19C106.12,21.19 107.19,21.19 108.27,21.19C109.35,21.19 110.42,21.19 111.5,21.19C112.58,21.19 113.65,21.19 114.73,21.19C115.81,21.19 116.88,21.19 117.96,21.19C119.04,21.19 120.11,21.19 121.19,21.19C122.27,21.19 123.34,21.19 124.42,21.19C125.5,21.19 126.57,21.19 127.65,21.19C128.73,21.19 129.8,21.19 130.88,21.19C131.96,21.19 133.04,21.19 134.12,21.19C135.2,21.19 136.27,21.19 137.35,21.19C138.43,21.19 139.5,21.19 140.58,21.19C141.66,21.19 142.73,21.19 143.81,21.19C144.89,21.19 145.96,21.19 147.04,21.19C148.12,21.19 149.19,21.19 150.27,21.19C151.35,21.19 152.42,21.19 153.5,21.19C154.58,21.19 155.65,21.19 156.73,21.19C157.81,21.19 158.88,21.19 159.96,21.19C161.04,21.19 162.11,21.19 163.19,21.19C164.27,21.19 165.34,21.19 166.42,21.19C167.5,21.19 168.57,21.19 169.65,21.19C170.73,21.19 171.81,21.19 172.89,21.19C173.97,21.19 175.04,21.19 176.12,21.19C177.2,21.19 178.27,21.19 179.35,21.19C180.43,21.19 181.5,21.19 182.58,21.19C183.66,21.19 184.73,21.19 185.81,21.19C186.89,21.19 187.96,21.19 189.04,21.19C190.12,21.19 191.19,21.19 192.27,21.19C193.35,21.19 194.42,21.19 195.5,21.19C196.58,21.19 197.65,21.19 198.73,21.19C199.81,21.19 200.88,21.19 201.96,21.19C203.04,21.19 204.11,21.19 205.19,21.19C206.27,21.19 207.34,21.19 208.42,21.19C209.5,21.19 210.58,21.19 211.66,21.19C212.74,21.19 213.81,21.19 214.89,21.19C215.97,21.19 217.04,21.19 218.12,21.19C219.2,21.19 220.27,21.19 221.35,21.19C222.43,21.19 223.5,21.19 224.58,21.19C225.66,21.19 226.73,21.19 227.81,21.19C228.89,21.19 229.96,21.19 231.04,21.19C232.12,21.19 233.19,21.19 234.27,21.19C235.35,21.19 236.42,21.19 237.5,21.19C238.58,21.19 239.65,21.19 240.73,21.19C241.81,21.19 242.88,21.19 243.96,21.19C245.04,21.19 246.11,21.19 247.19,21.19C248.27,21.19 249.35,21.19 250.43,21.19C251.51,21.19 252.58,21.19 253.66,21.19C254.74,21.19 255.81,21.19 256.89,21.19C257.97,21.19 259.04,21.19 260.12,21.19C261.2,21.19 262.27,21.19 263.35,21.19C264.43,21.19 265.5,21.19 266.58,21.19C267.66,21.19 268.73,21.19 269.81,21.19C270.89,21.19 271.96,21.19 273.04,21.19C274.12,21.19 275.19,21.19 276.27,21.19C277.35,21.19 278.42,21.19 279.5,21.19C280.58,21.19 281.65,21.19 282.73,21.19C283.81,21.19 284.88,21.19 285.96,21.19C287.04,21.19 288.12,21.19 289.2,21.19C290.28,21.19 291.35,21.19 292.43,21.19C293.51,21.19 294.58,21.19 295.66,21.19C296.74,21.19 297.81,21.19 298.89,21.19C299.97,21.19 301.04,21.19 302.12,21.19C303.2,21.19 304.27,21.19 305.35,21.19C306.43,21.19 307.5,21.19 308.58,21.19C309.66,21.19 310.73,21.19 311.81,21.19C312.89,21.19 313.96,21.19 315.04,21.19C316.12,21.19 317.19,21.19 318.27,21.19C319.35,21.19 320.42,21.19 321.5,21.19C322.58,21.19 323.65,21.19 324.73,21.19C325.81,21.19 326.89,21.19 327.97,21.19C329.05,21.19 330.12,21.19 331.2,21.19C332.28,21.19 333.35,21.19 334.43,21.19C335.51,21.19 336.58,21.19 337.66,21.19C338.74,21.19 339.81,21.19 340.89,21.19C341.97,21.19 343.04,21.19 344.12,21.19C345.2,21.19 346.27,21.19 347.35,21.19C348.43,21.19 349.5,21.19 350.58,21.19C351.66,21.19 352.73,21.19 353.81,21.19C354.89,21.19 355.96,21.19 357.04,21.19C358.12,21.19 359.19,21.19 360.27,21.19C361.35,21.19 362.42,21.19 363.5,21.19C364.58,21.19 365.65,21.19 366.73,21.19C367.81,21.19 368.89,21.19 369.97,21.19C371.05,21.19 372.12,21.19 373.2,21.19C374.28,21.19 375.35,21.19 376.43,21.19C377.51,21.19 378.58,21.19 379.66,21.19C380.74,21.19 381.81,21.19 382.89,21.19C383.97,21.19 385.04,21.19 386.12,21.19C387.2,21.19 388.27,21.19 389.35,21.19C390.43,21.19 391.5,21.19 392.58,21.19C393.66,21.19 394.73,21.19 395.81,21.19C396.89,21.19 397.96,21.19 399.04,21.19C400.12,21.19 401.19,21.19 402.27,21.19C403.35,21.19 404.42,21.19 405.5,21.19C406.58,21.19 407.66,21.19 408.74,21.19C409.82,21.19 410.89,21.19 411.97,21.19C413.05,21.19 414.12,21.19 415.2,21.19C416.28,21.19 417.35,21.19 418.43,21.19C419.51,21.19 420.58,21.19 421.66,21.19C422.74,21.19 423.81,21.19 424.89,21.19C425.97,21.19 427.04,21.19 428.12,21.19C429.2,21.19 430.27,21.19 431.35,21.19C432.43,21.19 433.5,21.19 434.58,21.19C435.66,21.19 436.73,21.19 437.81,21.19C438.89,21.19 439.96,21.19 441.04,21.19C442.12,21.19 443.19,21.19 444.27,21.19C445.35,21.19 446.43,21.19 447.51,21.19C448.59,21.19 449.66,21.19 450.74,21.19C451.82,21.19 452.89,21.19 453.97,21.19C455.05,21.19 456.12,21.19 457.2,21.19C458.28,21.19 459.35,21.19 460.43,21.19C461.51,21.19 462.58,21.19 463.66,21.19C464.74,21.19 465.81,21.19 466.89,21.19C467.97,21.19 469.04,21.19 470.12,21.19C471.2,21.19 472.27,21.19 473.35,21.19C474.43,21.19 475.5,21.19 476.58,21.19C477.66,21.19 478.73,21.19 479.81,21.19C480.89,21.19 481.96,21.19 483.04,21.19C484.12,21.19 485.2,21.19 486.28,21.19C487.36,21.19 488.43,21.19 489.51,21.19C490.59,21.19 491.66,21.19 492.74,21.19C493.82,21.19 494.89,21.19 495.97,21.19C497.05,21.19 498.12,21.19 499.2,21.19C500.28,21.19 501.35,21.19 502.43,21.19C503.51,21.19 504.58,21.19 505.66,21.19C506.74,21.19 507.81,21.19 508.89,21.19C509.97,21.19 511.04,21.19 512.12,21.19C513.2,21.19 514.27,21.19 515.35,21.19C516.43,21.19 517.5,21.19 518.58,21.19C519.66,21.19 520.73,21.19 521.81,21.19C522.89,21.19 523.97,21.19 525.05,21.19C526.13,21.19 527.2,21.19 528.28,21.19C529.36,21.19 530.43,21.19 531.51,21.19C532.59,21.19 533.66,21.19 534.74,21.19C535.82,21.19 536.89,21.19 537.97,21.19C539.05,21.19 540.12,21.19 541.2,21.19C542.28,21.19 543.35,21.19 544.43,21.19C545.51,21.19 546.58,21.19 547.66,21.19C548.74,21.19 549.81,21.19 550.89,21.19C551.97,21.19 553.04,21.19 554.12,21.19C555.2,21.19 556.27,21.19 557.35,21.19C558.43,21.19 559.5,21.19 560.58,21.19C561.66,21.19 562.74,21.19 563.82,21.19C564.9,21.19 565.97,21.19 567.05,21.19C568.13,21.19 569.2,21.19 570.28,21.19C571.36,21.19 572.43,21.19 573.51,21.19C574.59,21.19 575.66,21.19 576.74,21.19C577.82,21.19 578.89,21.19 579.97,21.19C581.05,21.19 582.12,21.19 583.2,21.19C584.28,21.19 585.35,21.19 586.43,21.19C587.51,21.19 588.58,21.19 589.66,21.19C590.74,21.19 591.81,21.19 592.89,21.19C593.97,21.19 595.04,21.19 596.12,21.19C597.2,21.19 598.27,21.19 599.35,21.19C600.43,21.19 601.5,21.19 602.58,21.19C603.66,21.19 604.74,21.19 605.82,21.19C606.9,21.19 607.97,21.19 609.05,21.19C610.13,21.19 611.2,21.19 612.28,21.19C613.36,21.19 614.43,21.19 615.51,21.19C616.59,21.19 617.66,21.19 618.74,21.19C619.82,21.19 620.89,21.19 621.97,21.19C623.05,21.19 624.12,21.19 625.2,21.19C626.28,21.19 627.35,21.19 628.43,21.19C629.51,21.19 630.58,21.19 631.66,21.19C632.74,21.19 633.81,21.19 634.89,21.19C635.97,21.19 637.04,21.19 638.12,21.19C639.2,21.19 640.27,21.19 641.35,21.19C642.43,21.19 643.51,21.19 644.59,21.19C645.67,21.19 646.74,21.19 647.82,21.19C648.9,21.19 649.97,21.19 651.05,21.19C652.13,21.19 653.2,21.19 654.28,21.19C655.36,21.19 656.43,21.19 657.51,21.19C658.59,21.19 659.66,21.19 660.74,21.19C661.82,21.19 662.89,21.19 663.97,21.19C665.05,21.19 666.12,21.19 667.2,21.19C668.28,21.19 669.35,21.19 670.43,21.19C671.51,21.19 672.58,21.19 673.66,21.19C674.74,21.19 675.81,21.19 676.89,21.19C677.97,21.19 679.04,21.19 680.12,21.19C681.2,21.19 682.28,21.19 683.36,21.19C684.44,21.19 685.51,21.19 686.59,21.19C687.67,21.19 688.74,21.19 689.82,21.19C690.9,21.19 691.97,21.19 693.05,21.19C694.13,21.19 695.2,21.19 696.28,21.19C697.36,21.19 698.43,21.19 699.51,21.19C700.59,21.19 701.66,21.19 702.74,21.19C703.82,21.19 704.89,21.19 705.97,21.19C707.05,21.19 708.12,21.19 709.2,21.19C710.28,21.19 711.35,21.19 712.43,21.19C713.51,21.19 714.58,21.19 715.66,21.19C716.74,21.19 717.81,21.19 718.89,21.19C719.97,21.19 721.05,21.19 722.13,21.19C723.21,21.19 724.28,21.19 725.36,21.19C726.44,21.19 727.51,21.19 728.59,21.19C729.67,21.19 730.74,21.19 731.82,21.19C732.9,21.19 733.97,21.19 735.05,21.19C736.13,21.19 737.2,21.19 738.28,21.19C739.36,21.19 740.43,21.19 741.51,21.19C742.59,21.19 743.66,21.19 744.74,21.19C745.82,21.19 746.89,21.19 747.97,21.19C749.05,21.19 750.12,21.19 751.2,21.19C752.28,21.19 753.35,21.19 754.43,21.19C755.51,21.19 756.58,21.19 757.66,21.19C758.74,21.19 759.82,21.19 760.9,21.19C761.98,21.19 763.05,21.19 764.13,21.19C765.21,21.19 766.28,21.19 767.36,21.19C768.44,21.19 769.51,21.19 770.59,21.19C771.67,21.19 772.74,21.19 773.82,21.19C774.9,21.19 775.97,21.19 777.05,21.19C778.13,21.19 779.2,21.19 780.28,21.19C781.36,21.19 782.43,21.19 783.51,21.19C784.59,21.19 785.66,21.19 786.74,21.19C787.82,21.19 788.89,21.19 789.97,21.19C791.05,21.19 792.12,21.19 793.2,21.19C794.28,21.19 795.35,21.19 796.43,21.19C797.51,21.19 798.58,21.19 799.66,21.19C800.74,21.19 801.82,21.19 802.9,21.19C803.98,21.19 805.05,21.19 806.13,21.19C807.21,21.19 808.28,21.19 809.36,21.19C810.44,21.19 811.51,21.19 812.59,21.19C813.67,21.19 814.74,21.19 815.82,21.19C816.9,21.19 817.97,21.19 819.05,21.19C820.13,21.19 821.2,21.19 822.28,21.19C823.36,21.19 824.43,21.19 825.51,21.19C826.59,21.19 827.66,21.19 828.74,21.19C829.82,21.19 830.89,21.19 831.97,21.19C833.05,21.19 834.12,21.19 835.2,21.19C836.28,21.19 837.35,21.19 838.43,21.19C839.51,21.19 840.59,21.19 841.67,21.19C842.75,21.19 843.82,21.19 844.9,21.19C845.98,21.19 847.05,21.19 848.13,21.19C849.21,21.19 850.28,21.19 851.36,21.19C852.44,21.19 853.51,21.19 854.59,21.19C855.67,21.19 856.74,21.19 857.82,21.19C858.9,21.19 859.97,21.19 861.05,21.19C862.13,21.19 863.2,21.19 864.28,21.19C865.36,21.19 866.43,21.19 867.51,21.19C868.59,21.19 869.66,21.19 870.74,21.19C871.82,21.19 872.89,21.19 873.97,21.19C875.05,21.19 876.12,21.19 877.2,21.19C878.28,21.19 879.36,21.19 880.44,21.19C881.52,21.19 882.59,21.19 883.67,21.19C884.75,21.19 885.82,21.19 886.9,21.19C887.98,21.19 889.05,21.19 890.13,21.19C891.21,21.19 892.28,21.19 893.36,21.19C894.44,21.19 895.51,21.19 896.59,21.19C897.67,21.19 898.74,21.19 899.82,21.19C900.9,21.19 901.97,21.19 903.05,21.19C904.13,21.19 905.2,21.19 906.28,21.19C907.36,21.19 908.43,21.19 909.51,21.19C910.59,21.19 911.66,21.19 912.74,21.19C913.82,21.19 914.89,21.19 915.97,21.19C917.05,21.19 918.13,21.19 919.21,21.19C920.29,21.19 921.36,21.19 922.44,21.19C923.52,21.19 924.59,21.19 925.67,21.19C926.75,21.19 927.82,21.19 928.9,21.19C929.98,21.19 931.05,21.19 932.13,21.19C933.21,21.19 934.28,21.19 935.36,21.19C936.44,21.19 937.51,21.19 938.59,21.19C939.67,21.19 940.74,21.18 941.82,21.18C942.9,21.18 943.97,21.18 945.05,21.17C946.13,21.16 947.2,21.15 948.28,21.13C949.36,21.11 950.43,21.09 951.51,21.06C952.59,21.03 953.66,20.99 954.74,20.93C955.82,20.87 956.9,20.81 957.98,20.72C959.06,20.64 960.13,20.53 961.21,20.42C962.29,20.31 963.36,20.17 964.44,20.05C965.52,19.93 966.59,19.8 967.67,19.69C968.75,19.59 969.82,19.48 970.9,19.42C971.98,19.36 973.05,19.31 974.13,19.31C975.21,19.31 976.28,19.36 977.36,19.42C978.44,19.48 979.51,19.59 980.59,19.69C981.67,19.8 982.74,19.93 983.82,20.05C984.9,20.17 985.97,20.31 987.05,20.42C988.13,20.53 989.2,20.63 990.28,20.72Q991.36,20.8 993.51,20.93L993.51,21.44Q991.36,21.56 990.28,21.65C989.2,21.74 988.13,21.85 987.05,21.96C985.97,22.07 984.9,22.2 983.82,22.32C982.74,22.44 981.67,22.58 980.59,22.69C979.51,22.8 978.44,22.9 977.36,22.96C976.28,23.02 975.21,23.06 974.13,23.06C973.05,23.06 971.98,23.02 970.9,22.96C969.82,22.9 968.75,22.8 967.67,22.69C966.59,22.58 965.52,22.44 964.44,22.32C963.36,22.2 962.29,22.07 961.21,21.96C960.13,21.85 959.06,21.74 957.98,21.65C956.9,21.56 955.82,21.5 954.74,21.44C953.66,21.38 952.59,21.34 951.51,21.31C950.43,21.28 949.36,21.26 948.28,21.24C947.2,21.22 946.13,21.22 945.05,21.21C943.97,21.2 942.9,21.19 941.82,21.19C940.74,21.19 939.67,21.19 938.59,21.19C937.51,21.19 936.44,21.19 935.36,21.19C934.28,21.19 933.21,21.19 932.13,21.19C931.05,21.19 929.98,21.19 928.9,21.19C927.82,21.19 926.75,21.19 925.67,21.19C924.59,21.19 923.52,21.19 922.44,21.19C921.36,21.19 920.29,21.19 919.21,21.19C918.13,21.19 917.05,21.19 915.97,21.19C914.89,21.19 913.82,21.19 912.74,21.19C911.66,21.19 910.59,21.19 909.51,21.19C908.43,21.19 907.36,21.19 906.28,21.19C905.2,21.19 904.13,21.19 903.05,21.19C901.97,21.19 900.9,21.19 899.82,21.19C898.74,21.19 897.67,21.19 896.59,21.19C895.51,21.19 894.44,21.19 893.36,21.19C892.28,21.19 891.21,21.19 890.13,21.19C889.05,21.19 887.98,21.19 886.9,21.19C885.82,21.19 884.75,21.19 883.67,21.19C882.59,21.19 881.52,21.19 880.44,21.19C879.36,21.19 878.28,21.19 877.2,21.19C876.12,21.19 875.05,21.19 873.97,21.19C872.89,21.19 871.82,21.19 870.74,21.19C869.66,21.19 868.59,21.19 867.51,21.19C866.43,21.19 865.36,21.19 864.28,21.19C863.2,21.19 862.13,21.19 861.05,21.19C859.97,21.19 858.9,21.19 857.82,21.19C856.74,21.19 855.67,21.19 854.59,21.19C853.51,21.19 852.44,21.19 851.36,21.19C850.28,21.19 849.21,21.19 848.13,21.19C847.05,21.19 845.98,21.19 844.9,21.19C843.82,21.19 842.75,21.19 841.67,21.19C840.59,21.19 839.51,21.19 838.43,21.19C837.35,21.19 836.28,21.19 835.2,21.19C834.12,21.19 833.05,21.19 831.97,21.19C830.89,21.19 829.82,21.19 828.74,21.19C827.66,21.19 826.59,21.19 825.51,21.19C824.43,21.19 823.36,21.19 822.28,21.19C821.2,21.19 820.13,21.19 819.05,21.19C817.97,21.19 816.9,21.19 815.82,21.19C814.74,21.19 813.67,21.19 812.59,21.19C811.51,21.19 810.44,21.19 809.36,21.19C808.28,21.19 807.21,21.19 806.13,21.19C805.05,21.19 803.98,21.19 802.9,21.19C801.82,21.19 800.74,21.19 799.66,21.19C798.58,21.19 797.51,21.19 796.43,21.19C795.35,21.19 794.28,21.19 793.2,21.19C792.12,21.19 791.05,21.19 789.97,21.19C788.89,21.19 787.82,21.19 786.74,21.19C785.66,21.19 784.59,21.19 783.51,21.19C782.43,21.19 781.36,21.19 780.28,21.19C779.2,21.19 778.13,21.19 777.05,21.19C775.97,21.19 774.9,21.19 773.82,21.19C772.74,21.19 771.67,21.19 770.59,21.19C769.51,21.19 768.44,21.19 767.36,21.19C766.28,21.19 765.21,21.19 764.13,21.19C763.05,21.19 761.98,21.19 760.9,21.19C759.82,21.19 758.74,21.19 757.66,21.19C756.58,21.19 755.51,21.19 754.43,21.19C753.35,21.19 752.28,21.19 751.2,21.19C750.12,21.19 749.05,21.19 747.97,21.19C746.89,21.19 745.82,21.19 744.74,21.19C743.66,21.19 742.59,21.19 741.51,21.19C740.43,21.19 739.36,21.19 738.28,21.19C737.2,21.19 736.13,21.19 735.05,21.19C733.97,21.19 732.9,21.19 731.82,21.19C730.74,21.19 729.67,21.19 728.59,21.19C727.51,21.19 726.44,21.19 725.36,21.19C724.28,21.19 723.21,21.19 722.13,21.19C721.05,21.19 719.97,21.19 718.89,21.19C717.81,21.19 716.74,21.19 715.66,21.19C714.58,21.19 713.51,21.19 712.43,21.19C711.35,21.19 710.28,21.19 709.2,21.19C708.12,21.19 707.05,21.19 705.97,21.19C704.89,21.19 703.82,21.19 702.74,21.19C701.66,21.19 700.59,21.19 699.51,21.19C698.43,21.19 697.36,21.19 696.28,21.19C695.2,21.19 694.13,21.19 693.05,21.19C691.97,21.19 690.9,21.19 689.82,21.19C688.74,21.19 687.67,21.19 686.59,21.19C685.51,21.19 684.44,21.19 683.36,21.19C682.28,21.19 681.2,21.19 680.12,21.19C679.04,21.19 677.97,21.19 676.89,21.19C675.81,21.19 674.74,21.19 673.66,21.19C672.58,21.19 671.51,21.19 670.43,21.19C669.35,21.19 668.28,21.19 667.2,21.19C666.12,21.19 665.05,21.19 663.97,21.19C662.89,21.19 661.82,21.19 660.74,21.19C659.66,21.19 658.59,21.19 657.51,21.19C656.43,21.19 655.36,21.19 654.28,21.19C653.2,21.19 652.13,21.19 651.05,21.19C649.97,21.19 648.9,21.19 647.82,21.19C646.74,21.19 645.67,21.19 644.59,21.19C643.51,21.19 642.43,21.19 641.35,21.19C640.27,21.19 639.2,21.19 638.12,21.19C637.04,21.19 635.97,21.19 634.89,21.19C633.81,21.19 632.74,21.19 631.66,21.19C630.58,21.19 629.51,21.19 628.43,21.19C627.35,21.19 626.28,21.19 625.2,21.19C624.12,21.19 623.05,21.19 621.97,21.19C620.89,21.19 619.82,21.19 618.74,21.19C617.66,21.19 616.59,21.19 615.51,21.19C614.43,21.19 613.36,21.19 612.28,21.19C611.2,21.19 610.13,21.19 609.05,21.19C607.97,21.19 606.9,21.19 605.82,21.19C604.74,21.19 603.66,21.19 602.58,21.19C601.5,21.19 600.43,21.19 599.35,21.19C598.27,21.19 597.2,21.19 596.12,21.19C595.04,21.19 593.97,21.19 592.89,21.19C591.81,21.19 590.74,21.19 589.66,21.19C588.58,21.19 587.51,21.19 586.43,21.19C585.35,21.19 584.28,21.19 583.2,21.19C582.12,21.19 581.05,21.19 579.97,21.19C578.89,21.19 577.82,21.19 576.74,21.19C575.66,21.19 574.59,21.19 573.51,21.19C572.43,21.19 571.36,21.19 570.28,21.19C569.2,21.19 568.13,21.19 567.05,21.19C565.97,21.19 564.9,21.19 563.82,21.19C562.74,21.19 561.66,21.19 560.58,21.19C559.5,21.19 558.43,21.19 557.35,21.19C556.27,21.19 555.2,21.19 554.12,21.19C553.04,21.19 551.97,21.19 550.89,21.19C549.81,21.19 548.74,21.19 547.66,21.19C546.58,21.19 545.51,21.19 544.43,21.19C543.35,21.19 542.28,21.19 541.2,21.19C540.12,21.19 539.05,21.19 537.97,21.19C536.89,21.19 535.82,21.19 534.74,21.19C533.66,21.19 532.59,21.19 531.51,21.19C530.43,21.19 529.36,21.19 528.28,21.19C527.2,21.19 526.13,21.19 525.05,21.19C523.97,21.19 522.89,21.19 521.81,21.19C520.73,21.19 519.66,21.19 518.58,21.19C517.5,21.19 516.43,21.19 515.35,21.19C514.27,21.19 513.2,21.19 512.12,21.19C511.04,21.19 509.97,21.19 508.89,21.19C507.81,21.19 506.74,21.19 505.66,21.19C504.58,21.19 503.51,21.19 502.43,21.19C501.35,21.19 500.28,21.19 499.2,21.19C498.12,21.19 497.05,21.19 495.97,21.19C494.89,21.19 493.82,21.19 492.74,21.19C491.66,21.19 490.59,21.19 489.51,21.19C488.43,21.19 487.36,21.19 486.28,21.19C485.2,21.19 484.12,21.19 483.04,21.19C481.96,21.19 480.89,21.19 479.81,21.19C478.73,21.19 477.66,21.19 476.58,21.19C475.5,21.19 474.43,21.19 473.35,21.19C472.27,21.19 471.2,21.19 470.12,21.19C469.04,21.19 467.97,21.19 466.89,21.19C465.81,21.19 464.74,21.19 463.66,21.19C462.58,21.19 461.51,21.19 460.43,21.19C459.35,21.19 458.28,21.19 457.2,21.19C456.12,21.19 455.05,21.19 453.97,21.19C452.89,21.19 451.82,21.19 450.74,21.19C449.66,21.19 448.59,21.19 447.51,21.19C446.43,21.19 445.35,21.19 444.27,21.19C443.19,21.19 442.12,21.19 441.04,21.19C439.96,21.19 438.89,21.19 437.81,21.19C436.73,21.19 435.66,21.19 434.58,21.19C433.5,21.19 432.43,21.19 431.35,21.19C430.27,21.19 429.2,21.19 428.12,21.19C427.04,21.19 425.97,21.19 424.89,21.19C423.81,21.19 422.74,21.19 421.66,21.19C420.58,21.19 419.51,21.19 418.43,21.19C417.35,21.19 416.28,21.19 415.2,21.19C414.12,21.19 413.05,21.19 411.97,21.19C410.89,21.19 409.82,21.19 408.74,21.19C407.66,21.19 406.58,21.19 405.5,21.19C404.42,21.19 403.35,21.19 402.27,21.19C401.19,21.19 400.12,21.19 399.04,21.19C397.96,21.19 396.89,21.19 395.81,21.19C394.73,21.19 393.66,21.19 392.58,21.19C391.5,21.19 390.43,21.19 389.35,21.19C388.27,21.19 387.2,21.19 386.12,21.19C385.04,21.19 383.97,21.19 382.89,21.19C381.81,21.19 380.74,21.19 379.66,21.19C378.58,21.19 377.51,21.19 376.43,21.19C375.35,21.19 374.28,21.19 373.2,21.19C372.12,21.19 371.05,21.19 369.97,21.19C368.89,21.19 367.81,21.19 366.73,21.19C365.65,21.19 364.58,21.19 363.5,21.19C362.42,21.19 361.35,21.19 360.27,21.19C359.19,21.19 358.12,21.19 357.04,21.19C355.96,21.19 354.89,21.19 353.81,21.19C352.73,21.19 351.66,21.19 350.58,21.19C349.5,21.19 348.43,21.19 347.35,21.19C346.27,21.19 345.2,21.19 344.12,21.19C343.04,21.19 341.97,21.19 340.89,21.19C339.81,21.19 338.74,21.19 337.66,21.19C336.58,21.19 335.51,21.19 334.43,21.19C333.35,21.19 332.28,21.19 331.2,21.19C330.12,21.19 329.05,21.19 327.97,21.19C326.89,21.19 325.81,21.19 324.73,21.19C323.65,21.19 322.58,21.19 321.5,21.19C320.42,21.19 319.35,21.19 318.27,21.19C317.19,21.19 316.12,21.19 315.04,21.19C313.96,21.19 312.89,21.19 311.81,21.19C310.73,21.19 309.66,21.19 308.58,21.19C307.5,21.19 306.43,21.19 305.35,21.19C304.27,21.19 303.2,21.19 302.12,21.19C301.04,21.19 299.97,21.19 298.89,21.19C297.81,21.19 296.74,21.19 295.66,21.19C294.58,21.19 293.51,21.19 292.43,21.19C291.35,21.19 290.28,21.19 289.2,21.19C288.12,21.19 287.04,21.19 285.96,21.19C284.88,21.19 283.81,21.19 282.73,21.19C281.65,21.19 280.58,21.19 279.5,21.19C278.42,21.19 277.35,21.19 276.27,21.19C275.19,21.19 274.12,21.19 273.04,21.19C271.96,21.19 270.89,21.19 269.81,21.19C268.73,21.19 267.66,21.19 266.58,21.19C265.5,21.19 264.43,21.19 263.35,21.19C262.27,21.19 261.2,21.19 260.12,21.19C259.04,21.19 257.97,21.19 256.89,21.19C255.81,21.19 254.74,21.19 253.66,21.19C252.58,21.19 251.51,21.19 250.43,21.19C249.35,21.19 248.27,21.19 247.19,21.19C246.11,21.19 245.04,21.19 243.96,21.19C242.88,21.19 241.81,21.19 240.73,21.19C239.65,21.19 238.58,21.19 237.5,21.19C236.42,21.19 235.35,21.19 234.27,21.19C233.19,21.19 232.12,21.19 231.04,21.19C229.96,21.19 228.89,21.19 227.81,21.19C226.73,21.19 225.66,21.19 224.58,21.19C223.5,21.19 222.43,21.19 221.35,21.19C220.27,21.19 219.2,21.19 218.12,21.19C217.04,21.19 215.97,21.19 214.89,21.19C213.81,21.19 212.74,21.19 211.66,21.19C210.58,21.19 209.5,21.19 208.42,21.19C207.34,21.19 206.27,21.19 205.19,21.19C204.11,21.19 203.04,21.19 201.96,21.19C200.88,21.19 199.81,21.19 198.73,21.19C197.65,21.19 196.58,21.19 195.5,21.19C194.42,21.19 193.35,21.19 192.27,21.19C191.19,21.19 190.12,21.19 189.04,21.19C187.96,21.19 186.89,21.19 185.81,21.19C184.73,21.19 183.66,21.19 182.58,21.19C181.5,21.19 180.43,21.19 179.35,21.19C178.27,21.19 177.2,21.19 176.12,21.19C175.04,21.19 173.97,21.19 172.89,21.19C171.81,21.19 170.73,21.19 169.65,21.19C168.57,21.19 167.5,21.19 166.42,21.19C165.34,21.19 164.27,21.19 163.19,21.19C162.11,21.19 161.04,21.19 159.96,21.19C158.88,21.19 157.81,21.19 156.73,21.19C155.65,21.19 154.58,21.19 153.5,21.19C152.42,21.19 151.35,21.19 150.27,21.19C149.19,21.19 148.12,21.19 147.04,21.19C145.96,21.19 144.89,21.19 143.81,21.19C142.73,21.19 141.66,21.19 140.58,21.19C139.5,21.19 138.43,21.19 137.35,21.19C136.27,21.19 135.2,21.19 134.12,21.19C133.04,21.19 131.96,21.19 130.88,21.19C129.8,21.19 128.73,21.19 127.65,21.19C126.57,21.19 125.5,21.19 124.42,21.19C123.34,21.19 122.27,21.19 121.19,21.19C120.11,21.19 119.04,21.19 117.96,21.19C116.88,21.19 115.81,21.19 114.73,21.19C113.65,21.19 112.58,21.19 111.5,21.19C110.42,21.19 109.35,21.19 108.27,21.19C107.19,21.19 106.12,21.19 105.04,21.19C103.96,21.19 102.89,21.19 101.81,21.19C100.73,21.19 99.66,21.19 98.58,21.19C97.5,21.19 96.43,21.19 95.35,21.19C94.27,21.19 93.2,21.19 92.12,21.19C91.04,21.19 89.96,21.19 88.88,21.19C87.8,21.19 86.73,21.19 85.65,21.19C84.57,21.19 83.5,21.19 82.42,21.19C81.34,21.19 80.27,21.19 79.19,21.19C78.11,21.19 77.04,21.19 75.96,21.19C74.88,21.19 73.81,21.19 72.73,21.19C71.65,21.19 70.58,21.19 69.5,21.19C68.42,21.19 67.35,21.19 66.27,21.19C65.19,21.19 64.12,21.19 63.04,21.19C61.96,21.19 60.89,21.19 59.81,21.19C58.73,21.19 57.66,21.19 56.58,21.19C55.5,21.19 54.43,21.19 53.35,21.19C52.27,21.19 51.19,21.19 50.11,21.19C49.03,21.19 47.96,21.19 46.88,21.19C45.8,21.19 44.73,21.2 43.65,21.2C42.57,21.2 41.5,21.2 40.42,21.21C39.34,21.22 38.27,21.24 37.19,21.27C36.11,21.3 35.04,21.34 33.96,21.41C32.88,21.49 31.8,21.56 30.73,21.72C29.65,21.88 28.57,22.07 27.5,22.37C26.41,22.67 25.33,23.05 24.27,23.54C23.17,24.05 22.09,24.68 21.04,25.39C19.94,26.13 18.87,27.02 17.81,27.91C16.72,28.83 15.66,29.88 14.58,30.83C13.51,31.77 12.45,32.8 11.34,33.6C10.29,34.35 9.23,35.12 8.11,35.52C7.07,35.89 5.95,36.11 4.88,36.02C3.79,35.93 2.69,35.48 1.65,34.95C0.53,34.38 -0.53,33.48 -1.58,32.63C-2.68,31.74 -3.73,30.68 -4.81,29.72C-5.88,28.76 -6.94,27.75 -8.04,26.88C-9.09,26.05 -10.17,25.26 -11.27,24.6Q-12.32,23.97 -14.5,23.01Z" style="vector-effect: none; stroke-width: 2px; stroke: rgb(181, 181, 181); stroke-opacity: 1; fill: rgb(181, 181, 181); fill-opacity: 1;"/><path class="box" d="M5.41,24.9V17.48M4.88,24.9V17.48H6.41V24.9ZM4.88,21.19H4.88M6.41,21.19H6.41" style="vector-effect: non-scaling-stroke; stroke-width: 2px; stroke: rgb(181, 181, 181); stroke-opacity: 1; fill: rgb(181, 181, 181); fill-opacity: 1;"/><path class="mean" d="M113.13,24.9V17.48" style="fill: none; vector-effect: non-scaling-stroke; stroke-width: 2px; stroke-dasharray: 4px, 2px; stroke: rgb(181, 181, 181); stroke-opacity: 1;"/></g></g><g class="scatterlayer mlayer"><g class="trace scatter traced8854e" style="stroke-miterlimit: 2; opacity: 1;"><g class="fills"/><g class="errorbars"/><g class="lines"/><g class="points"><path class="point" transform="translate(974.13,21.19)" d="M2,0A2,2 0 1,1 0,-2A2,2 0 0,1 2,0Z" style="opacity: 1; stroke-width: 0px; fill: rgb(11, 121, 230); fill-opacity: 1;"/></g><g class="text"/></g><g class="trace scatter traceea7e76" style="stroke-miterlimit: 2; opacity: 1;"><g class="fills"/><g class="errorbars"/><g class="lines"/><g class="points"><path class="point" transform="translate(8.82,21.19)" d="M2,0A2,2 0 1,1 0,-2A2,2 0 0,1 2,0Z" style="opacity: 1; stroke-width: 0px; fill: rgb(11, 121, 230); fill-opacity: 1;"/></g><g class="text"/></g><g class="trace scatter trace828db3" style="stroke-miterlimit: 2; opacity: 1;"><g class="fills"/><g class="errorbars"/><g class="lines"/><g class="points"><path class="point" transform="translate(5.61,21.19)" d="M2,0A2,2 0 1,1 0,-2A2,2 0 0,1 2,0Z" style="opacity: 1; stroke-width: 0px; fill: rgb(11, 121, 230); fill-opacity: 1;"/></g><g class="text"/></g><g class="trace scatter tracee9fcf3" style="stroke-miterlimit: 2; opacity: 1;"><g class="fills"/><g class="errorbars"/><g class="lines"/><g class="points"><path class="point" transform="translate(5.03,21.19)" d="M2,0A2,2 0 1,1 0,-2A2,2 0 0,1 2,0Z" style="opacity: 1; stroke-width: 0px; fill: rgb(11, 121, 230); fill-opacity: 1;"/></g><g class="text"/></g><g class="trace scatter trace761a4d" style="stroke-miterlimit: 2; opacity: 1;"><g class="fills"/><g class="errorbars"/><g class="lines"/><g class="points"><path class="point" transform="translate(4.99,21.19)" d="M2,0A2,2 0 1,1 0,-2A2,2 0 0,1 2,0Z" style="opacity: 1; stroke-width: 0px; fill: rgb(11, 121, 230); fill-opacity: 1;"/></g><g class="text"/></g><g class="trace scatter trace9a33e5" style="stroke-miterlimit: 2; opacity: 1;"><g class="fills"/><g class="errorbars"/><g class="lines"/><g class="points"><path class="point" transform="translate(4.88,21.19)" d="M2,0A2,2 0 1,1 0,-2A2,2 0 0,1 2,0Z" style="opacity: 1; stroke-width: 0px; fill: rgb(11, 121, 230); fill-opacity: 1;"/></g><g class="text"/></g><g class="trace scatter trace83b245" style="stroke-miterlimit: 2; opacity: 1;"><g class="fills"/><g class="errorbars"/><g class="lines"/><g class="points"><path class="point" transform="translate(4.92,21.19)" d="M2,0A2,2 0 1,1 0,-2A2,2 0 0,1 2,0Z" style="opacity: 1; stroke-width: 0px; fill: rgb(11, 121, 230); fill-opacity: 1;"/></g><g class="text"/></g><g class="trace scatter trace05f148" style="stroke-miterlimit: 2; opacity: 1;"><g class="fills"/><g class="errorbars"/><g class="lines"/><g class="points"><path class="point" transform="translate(4.88,21.19)" d="M2,0A2,2 0 1,1 0,-2A2,2 0 0,1 2,0Z" style="opacity: 1; stroke-width: 0px; fill: rgb(11, 121, 230); fill-opacity: 1;"/></g><g class="text"/></g><g class="trace scatter traceabffdd" style="stroke-miterlimit: 2; opacity: 1;"><g class="fills"/><g class="errorbars"/><g class="lines"/><g class="points"><path class="point" transform="translate(4.88,21.19)" d="M2,0A2,2 0 1,1 0,-2A2,2 0 0,1 2,0Z" style="opacity: 1; stroke-width: 0px; fill: rgb(11, 121, 230); fill-opacity: 1;"/></g><g class="text"/></g></g></g></g><path class="xlines-above crisp" d="M0,0" style="fill: none;"/><path class="ylines-above crisp" d="M0,0" style="fill: none;"/><g class="overlines-above"/><g class="xaxislayer-above"><g class="x2tick"><text text-anchor="middle" x="0" y="173" transform="translate(110.85,0)" style="font-family: 'Lucida Grande', 'Open Sans', verdana, arial, sans-serif; font-size: 9px; fill: rgb(0, 0, 0); fill-opacity: 0.5; white-space: pre; opacity: 1;">0</text></g><g class="x2tick"><text text-anchor="middle" x="0" y="173" style="font-family: 'Lucida Grande', 'Open Sans', verdana, arial, sans-serif; font-size: 9px; fill: rgb(0, 0, 0); fill-opacity: 0.5; white-space: pre; opacity: 1;" transform="translate(293.15,0)">5k</text></g><g class="x2tick"><text text-anchor="middle" x="0" y="173" style="font-family: 'Lucida Grande', 'Open Sans', verdana, arial, sans-serif; font-size: 9px; fill: rgb(0, 0, 0); fill-opacity: 0.5; white-space: pre; opacity: 1;" transform="translate(475.46,0)">10k</text></g><g class="x2tick"><text text-anchor="middle" x="0" y="173" style="font-family: 'Lucida Grande', 'Open Sans', verdana, arial, sans-serif; font-size: 9px; fill: rgb(0, 0, 0); fill-opacity: 0.5; white-space: pre; opacity: 1;" transform="translate(657.76,0)">15k</text></g><g class="x2tick"><text text-anchor="middle" x="0" y="173" style="font-family: 'Lucida Grande', 'Open Sans', verdana, arial, sans-serif; font-size: 9px; fill: rgb(0, 0, 0); fill-opacity: 0.5; white-space: pre; opacity: 1;" transform="translate(840.07,0)">20k</text></g><g class="x2tick"><text text-anchor="middle" x="0" y="173" style="font-family: 'Lucida Grande', 'Open Sans', verdana, arial, sans-serif; font-size: 9px; fill: rgb(0, 0, 0); fill-opacity: 0.5; white-space: pre; opacity: 1;" transform="translate(1022.37,0)">25k</text></g></g><g class="yaxislayer-above"><g class="y2tick"><text text-anchor="end" x="105" y="3.15" transform="translate(0,141.815)" style="font-family: 'Lucida Grande', 'Open Sans', verdana, arial, sans-serif; font-size: 9px; fill: rgb(0, 0, 0); fill-opacity: 0.5; white-space: pre; opacity: 1;">Number of Clusters  </text></g></g><g class="overaxes-above"/></g></g><g class="polarlayer"/><g class="smithlayer"/><g class="ternarylayer"/><g class="geolayer"/><g class="funnelarealayer"/><g class="pielayer"/><g class="iciclelayer"/><g class="treemaplayer"/><g class="sunburstlayer"/><g class="glimages"/><defs id="topdefs-bcf742"><g class="clips"/></defs><g class="layer-above"><g class="imagelayer"/><g class="shapelayer"/></g><g class="infolayer"><g class="g-gtitle"><text class="gtitle" x="550" y="25" text-anchor="middle" dy="0em" style="opacity: 1; font-family: 'Lucida Grande', 'Open Sans', verdana, arial, sans-serif; font-size: 20px; fill: rgb(42, 63, 95); fill-opacity: 1; white-space: pre;"><tspan class="line" dy="0em" x="550" y="25">Initial Clustering Sizes Distribution</tspan><tspan class="line" dy="1.3em" x="550" y="25">​<tspan style="font-size:70%" dy="-0.6em">9 samples</tspan><tspan dy="0.42em">​</tspan></tspan></text></g><g class="g-xtitle"/><g class="g-x2title"/><g class="g-ytitle"/><g class="g-y2title"/></g></svg>